<?xml version="1.0" standalone="no"?>
<!DOCTYPE svg PUBLIC "-//W3C//DTD SVG 20010904//EN"
 "http://www.w3.org/TR/2001/REC-SVG-20010904/DTD/svg10.dtd">
<svg version="1.0" xmlns="http://www.w3.org/2000/svg"
 width="700.000000pt" height="700.000000pt" viewBox="0 0 700.000000 700.000000"
 preserveAspectRatio="xMidYMid meet">
<metadata>
Created by potrace 1.11, written by Peter Selinger 2001-2013
</metadata>
<g transform="translate(0.000000,700.000000) scale(0.100000,-0.100000)"
fill="#000000" stroke="none">
<path d="M3268 6995 c-1 -1 -39 -5 -83 -9 -44 -3 -91 -8 -105 -10 -14 -2 -47
-7 -75 -10 -27 -3 -75 -10 -105 -16 -30 -6 -68 -13 -85 -16 -139 -25 -357 -86
-520 -146 -105 -39 -369 -153 -390 -169 -5 -4 -46 -26 -90 -50 -429 -226 -870
-620 -1171 -1044 -65 -92 -184 -281 -184 -294 0 -5 -4 -11 -9 -13 -14 -5 -156
-298 -202 -416 -72 -185 -139 -400 -164 -524 -3 -16 -7 -38 -10 -50 -26 -122
-48 -262 -62 -403 -10 -100 -10 -569 0 -650 4 -33 10 -82 13 -110 10 -99 53
-324 84 -440 6 -22 13 -49 15 -61 9 -41 93 -290 125 -369 69 -174 176 -378
313 -600 20 -32 190 -268 213 -295 146 -172 283 -315 400 -417 32 -28 70 -61
84 -73 46 -41 288 -220 296 -220 4 0 17 -8 28 -18 58 -51 527 -302 566 -302 5
0 18 -4 28 -10 31 -18 166 -67 272 -99 153 -47 162 -50 193 -56 62 -12 81 -16
87 -20 4 -2 22 -7 41 -10 19 -3 66 -12 104 -20 39 -7 97 -17 130 -21 33 -3 69
-8 80 -10 127 -26 685 -25 835 0 14 3 45 7 70 10 60 8 193 31 240 42 49 12 65
15 90 20 169 33 493 150 710 256 480 235 878 555 1216 978 58 72 204 276 204
285 0 2 13 24 29 47 67 99 212 385 271 532 33 84 116 331 124 368 3 13 16 68
29 123 27 109 44 190 51 245 3 19 7 46 10 60 22 117 31 263 31 500 0 201 -10
424 -21 441 -2 3 -5 26 -8 50 -6 57 -24 172 -37 229 -6 25 -13 55 -15 66 -2
12 -15 64 -29 115 -14 52 -27 103 -30 113 -22 93 -121 347 -196 506 -53 111
-183 347 -199 360 -3 3 -26 36 -50 75 -188 292 -501 625 -795 845 -112 83
-252 180 -260 180 -4 0 -19 9 -33 19 -70 49 -318 177 -447 230 -44 19 -92 40
-107 48 -16 8 -28 11 -28 7 0 -3 -6 -2 -12 3 -17 14 -262 93 -333 109 -5 1
-28 7 -50 12 -22 6 -55 14 -74 17 -19 3 -37 7 -40 9 -3 2 -24 7 -45 10 -21 4
-48 8 -60 11 -20 4 -75 13 -126 21 -14 2 -52 6 -85 10 -33 3 -76 8 -95 11 -40
5 -546 13 -552 8z"/>
</g>
</svg>
